<?xml version="1.0" standalone="no"?>
<!DOCTYPE svg PUBLIC "-//W3C//DTD SVG 20010904//EN"
 "http://www.w3.org/TR/2001/REC-SVG-20010904/DTD/svg10.dtd">
<svg version="1.0" xmlns="http://www.w3.org/2000/svg"
 width="1200.000000pt" height="1200.000000pt" viewBox="0 0 1200.000000 1200.000000"
 preserveAspectRatio="xMidYMid meet">

<g transform="translate(0.000000,1200.000000) scale(0.100000,-0.100000)"
fill="#000000" stroke="none">
<path d="M5193 8967 c-100 -37 -183 -135 -274 -322 -275 -566 -417 -1733 -348
-2860 81 -1323 381 -2226 722 -2170 156 26 319 225 426 521 65 178 151 568
151 681 0 25 -47 142 -152 375 -83 186 -154 338 -158 338 -4 0 -10 -30 -14
-67 -18 -171 -79 -377 -140 -469 -45 -68 -109 -101 -160 -84 -65 21 -118 105
-170 265 -183 574 -160 1938 41 2368 56 119 115 162 193 138 105 -31 186 -206
234 -509 l21 -133 148 393 149 393 -17 105 c-71 450 -218 836 -371 970 -82 71
-195 98 -281 67z"/>
<path d="M6230 6305 l0 -2645 195 0 195 0 0 758 0 757 52 203 c29 111 55 202
58 202 3 0 32 -145 64 -322 32 -178 100 -557 152 -843 51 -286 103 -573 115
-638 l21 -117 225 0 226 0 -7 33 c-12 59 -340 1794 -486 2570 l-60 319 201
921 c110 507 225 1034 255 1170 30 137 54 255 54 263 0 12 -35 14 -220 14
-123 0 -220 -4 -220 -9 0 -17 -420 -1965 -425 -1969 -3 -3 -5 441 -5 986 l0
992 -195 0 -195 0 0 -2645z"/>
</g>
</svg>
